<svg width="640" height="460" viewBox="0 0 640 460" fill="none" xmlns="http://www.w3.org/2000/svg">
  <rect width="640" height="460" rx="36" fill="#F8F5EF"/>
  <rect x="58" y="330" width="524" height="56" rx="18" fill="#D8D3CB"/>
  <rect x="118" y="96" width="24" height="262" rx="12" fill="#5E6770"/>
  <rect x="176" y="96" width="24" height="262" rx="12" fill="#717C85"/>
  <rect x="234" y="96" width="24" height="262" rx="12" fill="#5E6770"/>
  <rect x="292" y="96" width="24" height="262" rx="12" fill="#717C85"/>
  <rect x="350" y="96" width="24" height="262" rx="12" fill="#5E6770"/>
  <rect x="408" y="96" width="24" height="262" rx="12" fill="#717C85"/>
  <rect x="466" y="96" width="24" height="262" rx="12" fill="#5E6770"/>
  <path d="M118 136H490" stroke="#AAB1B7" stroke-width="8" stroke-dasharray="14 10"/>
  <path d="M118 192H490" stroke="#AAB1B7" stroke-width="8" stroke-dasharray="14 10"/>
  <path d="M118 248H490" stroke="#AAB1B7" stroke-width="8" stroke-dasharray="14 10"/>
  <path d="M118 304H490" stroke="#AAB1B7" stroke-width="8" stroke-dasharray="14 10"/>
  <rect x="470" y="64" width="104" height="54" rx="18" fill="#101417"/>
  <text x="490" y="98" fill="#F0B429" font-family="Arial, sans-serif" font-size="22" font-weight="700">STEEL</text>
</svg>
