<svg xmlns="http://www.w3.org/2000/svg" viewBox="0 0 32 32" fill="none">
  <circle cx="16" cy="16" r="16" fill="#25D366"/>
  <path fill="#fff" d="M24.17 7.84A10.9 10.9 0 0 0 6.8 20.98l-1.07 3.9 4-.99a10.91 10.91 0 0 0 5.2 1.33h.01a10.91 10.91 0 0 0 9.23-16.38Zm-9.22 15.54h-.01a9.03 9.03 0 0 1-4.58-1.24l-.32-.19-2.37.58.63-2.31-.21-.34a9.07 9.07 0 1 1 6.86 3.5Zm4.98-6.8c-.27-.13-1.6-.79-1.84-.88-.25-.09-.43-.13-.61.13-.18.27-.7.88-.86 1.06-.16.18-.31.2-.58.07-.27-.14-1.12-.41-2.14-1.31a8.07 8.07 0 0 1-1.48-1.84c-.16-.27-.02-.41.12-.54.12-.12.27-.31.4-.47.14-.16.18-.27.27-.45.09-.18.05-.34-.02-.47-.07-.13-.61-1.47-.84-2.01-.22-.53-.44-.46-.61-.47h-.52c-.18 0-.47.07-.72.34-.25.27-.95.92-.95 2.24 0 1.33.97 2.61 1.1 2.79.14.18 1.91 2.91 4.62 4.08.65.28 1.15.45 1.54.58.65.21 1.24.18 1.71.11.52-.08 1.6-.65 1.82-1.29.23-.63.23-1.17.16-1.28-.07-.11-.25-.18-.52-.32Z"/>
</svg>
